#!OML:ASF H:\MichaelJackson\Top Level 1\Subject 1\Session 1\male.ASF
:FULLY-SPECIFIED
:DEGREES
544
root 28.1603 16.7609 -26.8695 -167.596 -1.0279 -183.152
lowerback -1.67862 4.85271 4.61508
upperback 1.74136 6.21914 -7.79172
thorax 4.17876 3.22564 -10.5353
lowerneck -11.5511 -6.86545 5.37201
upperneck 6.81493 -11.3193 8.37172
head 4.14634 -5.17029 0.910263
rclavicle -5.4467e-014 -1.36764e-013
rhumerus -4.98607 33.3794 -82.0202
rradius 37.3599
rwrist 33.0564
rhand -38.2583 -39.7394
rfingers 7.12502
rthumb -11.2884 -429.416
lclavicle -5.4467e-014 -1.36764e-013
lhumerus -77.7357 -13.7958 93.9344
lradius 83.9318
lwrist 39.3652
lhand -17.2584 20.9631
lfingers 7.12502
lthumb 8.98597 50.7517
rfemur -35.8453 -14.3869 21.2474
rtibia 38.2067
rfoot -2.48358 0.572813
rtoes 1.86398
lfemur -39.7735 7.36596 -22.9146
ltibia 71.6953
lfoot 32.9385 -10.2895
ltoes 40.4289
545
root 28.1491 16.7442 -26.8257 -167.803 -1.03496 -182.872
lowerback -1.59933 4.87997 4.89902
upperback 1.75469 6.26837 -7.62075
thorax 4.1699 3.2661 -10.5117
lowerneck -11.5647 -6.73705 5.45444
upperneck 6.96003 -11.1707 8.3091
head 4.18315 -5.08978 0.886095
rclavicle 5.36719e-014 -6.99722e-014
rhumerus -4.83998 31.4632 -82.0472
rradius 37.5455
rwrist 33.9456
rhand -38.427 -39.3864
rfingers 7.12502
rthumb -11.4511 -429.054
lclavicle 5.36719e-014 -6.99722e-014
lhumerus -78.0357 -14.0281 94.3184
lradius 84.1996
lwrist 39.5709
lhand -17.493 21.1441
lfingers 7.12502
lthumb 8.75958 50.9423
rfemur -35.9111 -14.0364 21.3861
rtibia 38.45
rfoot -2.16822 0.489328
rtoes 4.31822
lfemur -38.8169 7.44165 -22.6197
ltibia 71.0451
lfoot 31.4702 -10.9777
ltoes 40.939
546
root 28.1377 16.7285 -26.7806 -168.023 -1.09368 -182.589
lowerback -1.49818 4.887 5.18729
upperback 1.77192 6.29068 -7.43774
thorax 4.1458 3.29232 -10.4815
lowerneck -11.5596 -6.61523 5.52072
upperneck 7.09994 -11.0246 8.2425
head 4.21608 -5.0116 0.86384
rclavicle 4.45278e-014 -1.43125e-014
rhumerus -4.73183 29.5713 -82.1086
rradius 37.7428
rwrist 34.9349
rhand -38.5773 -39.0763
rfingers 7.12502
rthumb -11.596 -428.735
lclavicle 4.45278e-014 -1.43125e-014
lhumerus -78.263 -14.2693 94.7164
lradius 84.355
lwrist 39.6781
lhand -17.7062 21.3325
lfingers 7.12502
lthumb 8.55385 51.1393
rfemur -35.9455 -13.7169 21.529
rtibia 38.6628
rfoot -1.86337 0.379561
rtoes 6.72932
lfemur -37.8399 7.52183 -22.3136
ltibia 70.4289
lfoot 29.5926 -11.8998
ltoes 41.1226
547
root 28.1259 16.7134 -26.7343 -168.26 -1.21016 -182.304
lowerback -1.38931 4.86948 5.47835
upperback 1.80263 6.28017 -7.24208
thorax 4.12294 3.30204 -10.4421
lowerneck -11.5397 -6.50691 5.56205
upperneck 7.22481 -10.889 8.17834
head 4.24358 -4.93997 0.846215
rclavicle -5.04913e-014 2.8625e-014
rhumerus -4.65829 27.6781 -82.2116
rradius 37.9451
rwrist 36.0336
rhand -38.7101 -38.7905
rfingers 7.12502
rthumb -11.7241 -428.442
lclavicle -5.04913e-014 2.8625e-014
lhumerus -78.399 -14.5174 95.1176
lradius 84.3911
lwrist 39.6711
lhand -17.8653 21.546
lfingers 7.12502
lthumb 8.40037 51.3589
rfemur -35.9381 -13.4561 21.6842
rtibia 38.8354
rfoot -1.58017 0.248267
rtoes 8.83439
lfemur -36.829 7.60351 -22.002
ltibia 69.8258
lfoot 27.3221 -12.9709
ltoes 41.0306
548
root 28.1136 16.6992 -26.6868 -168.497 -1.38642 -182.033
lowerback -1.27639 4.83028 5.76513
upperback 1.8284 6.23977 -7.0498
thorax 4.08565 3.29512 -10.4074
lowerneck -11.5152 -6.4277 5.57384
upperneck 7.3763 -10.792 8.12799
head 4.28151 -4.88602 0.833913
rclavicle -1.86858e-014 -2.62396e-014
rhumerus -4.66641 25.7437 -82.3889
rradius 38.1591
rwrist 37.2142
rhand -38.8332 -38.5095
rfingers 7.12502
rthumb -11.8428 -428.155
lclavicle -1.86858e-014 -2.62396e-014
lhumerus -78.4676 -14.7888 95.5075
lradius 84.3096
lwrist 39.5523
lhand -17.9327 21.8272
lfingers 7.12502
lthumb 8.3353 51.6428
rfemur -35.9043 -13.2875 21.8465
rtibia 38.964
rfoot -1.29845 0.101719
rtoes 10.4759
lfemur -35.7988 7.68813 -21.7101
ltibia 69.2095
lfoot 24.7481 -14.1154
ltoes 40.7718
549
root 28.1005 16.6854 -26.6384 -168.722 -1.61428 -181.784
lowerback -1.1761 4.77073 6.04553
upperback 1.8476 6.17046 -6.87255
thorax 4.04303 3.2722 -10.3878
lowerneck -11.4947 -6.38058 5.55463
upperneck 7.54798 -10.7389 8.09881
head 4.32986 -4.85233 0.828807
rclavicle 2.78299e-014 1.59028e-015
rhumerus -4.76631 23.7472 -82.6568
rradius 38.3948
rwrist 38.417
rhand -38.9597 -38.2009
rfingers 7.12502
rthumb -11.9648 -427.839
lclavicle 2.78299e-014 1.59028e-015
lhumerus -78.4647 -15.0843 95.8629
lradius 84.126
lwrist 39.3533
lhand -17.9187 22.1791
lfingers 7.12502
lthumb 8.3488 51.9941
rfemur -35.8644 -13.2228 22.0105
rtibia 39.055
rfoot -0.995688 -0.0527102
rtoes 11.5832
lfemur -34.7576 7.7615 -21.4549
ltibia 68.5506
lfoot 21.9436 -15.2349
ltoes 40.4375
550
root 28.0867 16.6724 -26.5894 -168.919 -1.88142 -181.561
lowerback -1.11599 4.69627 6.3129
upperback 1.85903 6.07892 -6.71375
thorax 4.01047 3.23712 -10.3802
lowerneck -11.4814 -6.36737 5.50253
upperneck 7.74211 -10.7334 8.09574
head 4.39025 -4.84048 0.832209
rclavicle 3.95581e-014 -2.06736e-014
rhumerus -4.96236 21.6818 -83.0088
rradius 38.667
rwrist 39.5736
rhand -39.1013 -37.8323
rfingers 7.12502
rthumb -12.1013 -427.462
lclavicle 3.95581e-014 -2.06736e-014
lhumerus -78.3971 -15.3994 96.1701
lradius 83.8676
lwrist 39.1179
lhand -17.8115 22.6281
lfingers 7.12502
lthumb 8.45223 52.4389
rfemur -35.874 -13.2588 22.1747
rtibia 39.1874
rfoot -0.692289 -0.232231
rtoes 12.2475
lfemur -33.7211 7.83037 -21.2475
ltibia 67.8523
lfoot 18.9685 -16.253
ltoes 40.1127
551
root 28.0719 16.6602 -26.5399 -169.086 -2.16911 -181.366
lowerback -1.08418 4.61102 6.57399
upperback 1.85176 5.97037 -6.58584
thorax 3.97299 3.19181 -10.4034
lowerneck -11.4837 -6.38033 5.42947
upperneck 7.98042 -10.7708 8.11574
head 4.47011 -4.84681 0.840919
rclavicle 3.99557e-014 -1.27222e-014
rhumerus -5.27366 19.5794 -83.4545
rradius 38.9901
rwrist 40.6021
rhand -39.2695 -37.3873
rfingers 7.12502
rthumb -12.2635 -427.008
lclavicle 3.99557e-014 -1.27222e-014
lhumerus -78.2921 -15.7266 96.4063
lradius 83.57
lwrist 38.8917
lhand -17.646 23.1651
lfingers 7.12502
lthumb 8.612 52.9695
rfemur -35.9179 -13.3834 22.3341
rtibia 39.3091
rfoot -0.379212 -0.415376
rtoes 12.43
lfemur -32.6728 7.91085 -21.0961
ltibia 67.0608
lfoot 15.8962 -17.1329
ltoes 39.7905
552
root 28.0561 16.6324 -26.4894 -169.207 -2.45875 -181.189
lowerback -1.09862 4.5248 6.8322
upperback 1.82203 5.85775 -6.48659
thorax 3.93968 3.14341 -10.4544
lowerneck -11.5046 -6.41461 5.33967
upperneck 8.26442 -10.8462 8.15835
head 4.57021 -4.86871 0.854311
rclavicle 5.4467e-014 2.22639e-014
rhumerus -5.6961 17.4965 -83.9664
rradius 39.3722
rwrist 41.4304
rhand -39.4697 -36.868
rfingers 7.12502
rthumb -12.4566 -426.477
lclavicle 5.4467e-014 2.22639e-014
lhumerus -78.1588 -16.0552 96.5689
lradius 83.2631
lwrist 38.7037
lhand -17.4387 23.8096
lfingers 7.12502
lthumb 8.812 53.6056
rfemur -36.0723 -13.5633 22.4938
rtibia 39.4777
rfoot 0.0343367 -0.621285
rtoes 12.4976
lfemur -31.6792 8.01819 -20.9945
ltibia 66.2293
lfoot 12.7319 -17.8409
ltoes 39.4658
553
root 28.0391 16.6206 -26.4392 -169.279 -2.73356 -181.032
lowerback -1.17129 4.43131 7.09347
upperback 1.77341 5.73159 -6.4189
thorax 3.9196 3.08783 -10.5402
lowerneck -11.5306 -6.44711 5.24611
upperneck 8.57318 -10.925 8.20894
head 4.6799 -4.89107 0.869539
rclavicle -8.82604e-014 -2.38542e-015
rhumerus -6.20034 15.5239 -84.5387
rradius 39.8007
rwrist 42.0459
rhand -39.6984 -36.2949
rfingers 7.12502
rthumb -12.677 -425.89
lclavicle -8.82604e-014 -2.38542e-015
lhumerus -78.0006 -16.3515 96.6316
lradius 82.9791
lwrist 38.5757
lhand -17.2235 24.5536
lfingers 7.12502
lthumb 9.01965 54.3408
rfemur -36.2525 -13.7756 22.6449
rtibia 39.6263
rfoot 0.468359 -0.815857
rtoes 12.4133
lfemur -30.6262 8.15653 -20.9501
ltibia 65.2158
lfoot 9.49773 -18.3534
ltoes 39.0672
